REM DIRINDEX 1\2,1\3,1\4
REM DIRNAME cjc105,folder01,folder02,folder03
TITLE ""
FILE "DISC1Track19.mp3" MP3
  TRACK 01 AUDIO
    TITLE "0:"
    INDEX 01 00:00:00
  TRACK 02 AUDIO
    TITLE "4:cjc105_1573"
    INDEX 01 00:00:17
  TRACK 03 AUDIO
    TITLE "0:"
    INDEX 01 00:04:09
  TRACK 04 AUDIO
    TITLE "2:cjc105_1574"
    INDEX 01 00:04:60
  TRACK 05 AUDIO
    TITLE "3:cjc105_1575"
    INDEX 01 00:06:24
  TRACK 06 AUDIO
    TITLE "0:"
    INDEX 01 00:07:62
  TRACK 07 AUDIO
    TITLE "2:cjc105_1576"
    INDEX 01 00:07:74
  TRACK 08 AUDIO
    TITLE "3:cjc105_1577"
    INDEX 01 00:09:24
  TRACK 09 AUDIO
    TITLE "0:"
    INDEX 01 00:10:49
  TRACK 10 AUDIO
    TITLE "2:cjc105_1578"
    INDEX 01 00:10:66
  TRACK 11 AUDIO
    TITLE "3:cjc105_1579"
    INDEX 01 00:12:34
  TRACK 12 AUDIO
    TITLE "0:"
    INDEX 01 00:14:13
  TRACK 13 AUDIO
    TITLE "2:cjc105_1580"
    INDEX 01 00:14:29
  TRACK 14 AUDIO
    TITLE "3:cjc105_1581"
    INDEX 01 00:15:64
  TRACK 15 AUDIO
    TITLE "0:"
    INDEX 01 00:17:33
  TRACK 16 AUDIO
    TITLE "2:cjc105_1582"
    INDEX 01 00:17:47
  TRACK 17 AUDIO
    TITLE "3:cjc105_1583"
    INDEX 01 00:19:03
  TRACK 18 AUDIO
    TITLE "0:"
    INDEX 01 00:20:18
  TRACK 19 AUDIO
    TITLE "2:cjc105_1584"
    INDEX 01 00:20:34
  TRACK 20 AUDIO
    TITLE "3:cjc105_1585"
    INDEX 01 00:21:66
  TRACK 21 AUDIO
    TITLE "0:"
    INDEX 01 00:23:14
  TRACK 22 AUDIO
    TITLE "2:cjc105_1586"
    INDEX 01 00:23:26
  TRACK 23 AUDIO
    TITLE "3:cjc105_1587"
    INDEX 01 00:25:25
  TRACK 24 AUDIO
    TITLE "0:"
    INDEX 01 00:26:40
  TRACK 25 AUDIO
    TITLE "2:cjc105_1588"
    INDEX 01 00:26:54
  TRACK 26 AUDIO
    TITLE "3:cjc105_1589"
    INDEX 01 00:28:08
  TRACK 27 AUDIO
    TITLE "0:"
    INDEX 01 00:29:66
  TRACK 28 AUDIO
    TITLE "2:cjc105_1590"
    INDEX 01 00:30:05
  TRACK 29 AUDIO
    TITLE "3:cjc105_1591"
    INDEX 01 00:31:12
  TRACK 30 AUDIO
    TITLE "0:"
    INDEX 01 00:32:60
  TRACK 31 AUDIO
    TITLE "2:cjc105_1592"
    INDEX 01 00:32:72
  TRACK 32 AUDIO
    TITLE "3:cjc105_1593"
    INDEX 01 00:34:06
  TRACK 33 AUDIO
    TITLE "0:"
    INDEX 01 00:35:27
  TRACK 34 AUDIO
    TITLE "2:cjc105_1594"
    INDEX 01 00:35:39
  TRACK 35 AUDIO
    TITLE "3:cjc105_1595"
    INDEX 01 00:36:72
  TRACK 36 AUDIO
    TITLE "0:"
    INDEX 01 00:38:22
  TRACK 37 AUDIO
    TITLE "2:cjc105_1596"
    INDEX 01 00:38:43
  TRACK 38 AUDIO
    TITLE "3:cjc105_1597"
    INDEX 01 00:40:19
  TRACK 39 AUDIO
    TITLE "0:"
    INDEX 01 00:41:69
  TRACK 40 AUDIO
    TITLE "2:cjc105_1598"
    INDEX 01 00:42:12
  TRACK 41 AUDIO
    TITLE "3:cjc105_1599"
    INDEX 01 00:43:42
  TRACK 42 AUDIO
    TITLE "0:"
    INDEX 01 00:46:49
  TRACK 43 AUDIO
    TITLE "2:cjc105_1600"
    INDEX 01 00:46:60
  TRACK 44 AUDIO
    TITLE "3:cjc105_1601"
    INDEX 01 00:48:28
  TRACK 45 AUDIO
    TITLE "0:"
    INDEX 01 00:49:70
  TRACK 46 AUDIO
    TITLE "2:cjc105_1602"
    INDEX 01 00:50:05
  TRACK 47 AUDIO
    TITLE "3:cjc105_1603"
    INDEX 01 00:53:08
  TRACK 48 AUDIO
    TITLE "0:"
    INDEX 01 00:54:52
  TRACK 49 AUDIO
    TITLE "2:cjc105_1604"
    INDEX 01 00:54:68
  TRACK 50 AUDIO
    TITLE "3:cjc105_1605"
    INDEX 01 00:56:55
  TRACK 51 AUDIO
    TITLE "0:"
    INDEX 01 00:58:18
  TRACK 52 AUDIO
    TITLE "2:cjc105_1606"
    INDEX 01 00:58:34
  TRACK 53 AUDIO
    TITLE "3:cjc105_1607"
    INDEX 01 00:59:69
  TRACK 54 AUDIO
    TITLE "0:"
    INDEX 01 01:01:34
  TRACK 55 AUDIO
    TITLE "2:cjc105_1608"
    INDEX 01 01:01:46
  TRACK 56 AUDIO
    TITLE "3:cjc105_1609"
    INDEX 01 01:03:08
  TRACK 57 AUDIO
    TITLE "0:"
    INDEX 01 01:04:43
  TRACK 58 AUDIO
    TITLE "2:cjc105_1610"
    INDEX 01 01:04:58
  TRACK 59 AUDIO
    TITLE "3:cjc105_1611"
    INDEX 01 01:06:28
  TRACK 60 AUDIO
    TITLE "0:"
    INDEX 01 01:07:64
  TRACK 61 AUDIO
    TITLE "2:cjc105_1612"
    INDEX 01 01:08:01
  TRACK 62 AUDIO
    TITLE "3:cjc105_1613"
    INDEX 01 01:10:26
  TRACK 63 AUDIO
    TITLE "0:"
    INDEX 01 01:12:19
  TRACK 64 AUDIO
    TITLE "2:cjc105_1614"
    INDEX 01 01:12:42
  TRACK 65 AUDIO
    TITLE "3:cjc105_1615"
    INDEX 01 01:14:00
  TRACK 66 AUDIO
    TITLE "0:"
    INDEX 01 01:15:19
  TRACK 67 AUDIO
    TITLE "2:cjc105_1616"
    INDEX 01 01:15:37
  TRACK 68 AUDIO
    TITLE "3:cjc105_1617"
    INDEX 01 01:17:12
  TRACK 69 AUDIO
    TITLE "0:"
    INDEX 01 01:18:56
  TRACK 70 AUDIO
    TITLE "2:cjc105_1618"
    INDEX 01 01:18:68
  TRACK 71 AUDIO
    TITLE "3:cjc105_1619"
    INDEX 01 01:20:28
  TRACK 72 AUDIO
    TITLE "0:"
    INDEX 01 01:21:57
  TRACK 73 AUDIO
    TITLE "2:cjc105_1620"
    INDEX 01 01:22:07
  TRACK 74 AUDIO
    TITLE "3:cjc105_1621"
    INDEX 01 01:23:11
  TRACK 75 AUDIO
    TITLE "0:"
    INDEX 01 01:25:68
  TRACK 76 AUDIO
    TITLE "2:cjc105_1622"
    INDEX 01 01:26:09
  TRACK 77 AUDIO
    TITLE "3:cjc105_1623"
    INDEX 01 01:28:59
  TRACK 78 AUDIO
    TITLE "0:"
    INDEX 01 01:30:01
  TRACK 79 AUDIO
    TITLE "2:cjc105_1624"
    INDEX 01 01:30:11
  TRACK 80 AUDIO
    TITLE "3:cjc105_1625"
    INDEX 01 01:31:63
  TRACK 81 AUDIO
    TITLE "0:"
    INDEX 01 01:34:22
